<svg width="12" height="20" viewBox="0 0 12 20" fill="#000000" xmlns="http://www.w3.org/2000/svg">
<path d="M8.475 10L1.125 2.65C0.875003 2.4 0.75417 2.10417 0.762503 1.7625C0.770837 1.42083 0.900003 1.125 1.15 0.875C1.4 0.625 1.69584 0.5 2.0375 0.5C2.37917 0.5 2.675 0.625 2.925 0.875L10.6 8.575C10.8 8.775 10.95 9 11.05 9.25C11.15 9.5 11.2 9.75 11.2 10C11.2 10.25 11.15 10.5 11.05 10.75C10.95 11 10.8 11.225 10.6 11.425L2.9 19.125C2.65 19.375 2.35834 19.4958 2.025 19.4875C1.69167 19.4792 1.4 19.35 1.15 19.1C0.900003 18.85 0.775003 18.5542 0.775003 18.2125C0.775003 17.8708 0.900003 17.575 1.15 17.325L8.475 10Z" fill="#000000" />
</svg>
