<svg width="12" height="20" viewBox="0 0 12 20" fill="#000000" xmlns="http://www.w3.org/2000/svg">
<path d="M3.55 9.99999L10.9 17.35C11.15 17.6 11.2708 17.8917 11.2625 18.225C11.2542 18.5583 11.125 18.85 10.875 19.1C10.625 19.35 10.3333 19.475 10 19.475C9.66666 19.475 9.375 19.35 9.125 19.1L1.425 11.425C1.225 11.225 1.075 11 0.974997 10.75C0.874997 10.5 0.824997 10.25 0.824997 9.99999C0.824997 9.74999 0.874997 9.49999 0.974997 9.24999C1.075 8.99999 1.225 8.77499 1.425 8.57499L9.125 0.874988C9.375 0.624988 9.67083 0.504155 10.0125 0.512488C10.3542 0.520822 10.65 0.649988 10.9 0.899988C11.15 1.14999 11.275 1.44165 11.275 1.77499C11.275 2.10832 11.15 2.39999 10.9 2.64999L3.55 9.99999Z" fill="#000000"/>
</svg>
