<svg width="12" height="7" viewBox="0 0 12 7" fill="#000000" xmlns="http://www.w3.org/2000/svg">
<path d="M5.99999 2.77499L2.09999 6.67499C1.91665 6.85833 1.68332 6.94999 1.39999 6.94999C1.11665 6.94999 0.883321 6.85833 0.699988 6.67499C0.516654 6.49166 0.424988 6.25833 0.424988 5.97499C0.424988 5.69166 0.516654 5.45833 0.699988 5.27499L5.29999 0.674994C5.39999 0.574994 5.50832 0.504161 5.62499 0.462494C5.74165 0.420827 5.86665 0.399994 5.99999 0.399994C6.13332 0.399994 6.25832 0.420827 6.37499 0.462494C6.49165 0.504161 6.59999 0.574994 6.69999 0.674994L11.3 5.27499C11.4833 5.45833 11.575 5.69166 11.575 5.97499C11.575 6.25833 11.4833 6.49166 11.3 6.67499C11.1167 6.85833 10.8833 6.94999 10.6 6.94999C10.3167 6.94999 10.0833 6.85833 9.89999 6.67499L5.99999 2.77499Z" fill="#000000"/>
</svg>
