<?xml version="1.0" encoding="utf-8"?>

<!-- Uploaded to: SVG Repo, www.svgrepo.com, Generator: SVG Repo Mixer Tools -->
<svg version="1.1" id="Icons" xmlns="http://www.w3.org/2000/svg" xmlns:xlink="http://www.w3.org/1999/xlink" 
	 viewBox="0 0 32 32" xml:space="preserve">
<style type="text/css">
	.st0{fill:none;stroke:#000000;stroke-width:2;stroke-linecap:round;stroke-linejoin:round;stroke-miterlimit:10;}
</style>
<g>
	<path d="M24,7c0-0.1,0-0.1,0-0.2l-0.7-4.3C23,1.1,21.8,0,20.3,0h-8.6c-1.5,0-2.7,1.1-3,2.5L8,6.8C8,6.9,8,6.9,8,7
		c-1.2,0.9-2,2.4-2,4v10c0,1.6,0.8,3.1,2,4c0,0.1,0,0.1,0,0.2l0.7,4.3c0.2,1.5,1.5,2.5,3,2.5h8.6c1.5,0,2.7-1.1,3-2.5l0.7-4.3
		c0-0.1,0-0.1,0-0.2c1.2-0.9,2-2.4,2-4V11C26,9.4,25.2,7.9,24,7z M24,21c0,1.7-1.3,3-3,3H11c-1.7,0-3-1.3-3-3V11c0-1.7,1.3-3,3-3h10
		c1.7,0,3,1.3,3,3V21z"/>
	<path d="M16.6,12.8L16,13.4l-0.6-0.6c-1.2-1.2-3.3-1.2-4.5,0c-1.2,1.3-1.2,3.3,0,4.6l4.4,4.5c0.2,0.2,0.4,0.3,0.7,0.3
		s0.5-0.1,0.7-0.3l4.4-4.5c1.2-1.3,1.2-3.3,0-4.6C19.9,11.6,17.8,11.6,16.6,12.8z"/>
</g>
</svg>